<svg preserveAspectRatio="none" overflow="visible" style="display: block;" width="56" height="56" viewBox="0 0 56 56" fill="none" xmlns="http://www.w3.org/2000/svg">
<g id="LevelEmblem">
<path id="hex/outer" d="M51.374 14.5049V41.4941L28 54.9893L4.62598 41.4941V14.5049L28 1.00977L51.374 14.5049Z" fill="url(#paint0_linear_0_136)" stroke="#9FE0C4" stroke-width="1.75"/>
<g id="hex/inner">
<path d="M28 6.125L46.9443 17.0625V38.9375L28 49.875L9.05569 38.9375V17.0625L28 6.125Z" fill="url(#paint1_linear_0_136)"/>
<path d="M46.5068 17.3145V38.6846L28 49.3691L9.49316 38.6846V17.3145L28 6.62988L46.5068 17.3145Z" stroke="white" stroke-opacity="0.28" stroke-width="0.875"/>
</g>
<ellipse id="gloss" cx="28" cy="14" rx="17.5" ry="7.875" fill="white" fill-opacity="0.22"/>
<path id="Rectangle" d="M15.75 19.25C15.75 16.3505 18.1005 14 21 14H35C37.8995 14 40.25 16.3505 40.25 19.25V29.75C40.25 36.5155 34.7655 42 28 42V42C21.2345 42 15.75 36.5155 15.75 29.75V19.25Z" fill="white"/>
<path id="Vector" d="M21 28.875L26.25 34.125L35.875 22.75" stroke="#0B6B4C" stroke-width="3.5" stroke-linecap="round" stroke-linejoin="round"/>
<path id="sparkle" d="M12.25 7.875L13.3328 11.1672L16.625 12.25L13.3328 13.3328L12.25 16.625L11.1672 13.3328L7.875 12.25L11.1672 11.1672L12.25 7.875Z" fill="white" fill-opacity="0.95"/>
<path id="sparkle_2" d="M44.1875 6.125L44.9454 8.42957L47.25 9.1875L44.9454 9.94543L44.1875 12.25L43.4296 9.94543L41.125 9.1875L43.4296 8.42957L44.1875 6.125Z" fill="white" fill-opacity="0.95"/>
</g>
<defs>
<linearGradient id="paint0_linear_0_136" x1="28" y1="0" x2="28" y2="56" gradientUnits="userSpaceOnUse">
<stop stop-color="#2EBF8C"/>
<stop offset="1" stop-color="#0E8A63"/>
</linearGradient>
<linearGradient id="paint1_linear_0_136" x1="28" y1="6.125" x2="28" y2="49.875" gradientUnits="userSpaceOnUse">
<stop stop-color="#0E8A63" stop-opacity="0.15"/>
<stop offset="1" stop-color="#0E8A63" stop-opacity="0.55"/>
</linearGradient>
</defs>
</svg>
